<?xml version="1.0" standalone="no"?>
<!DOCTYPE svg PUBLIC "-//W3C//DTD SVG 20010904//EN"
 "http://www.w3.org/TR/2001/REC-SVG-20010904/DTD/svg10.dtd">
<svg version="1.0" xmlns="http://www.w3.org/2000/svg"
 width="64.000000pt" height="64.000000pt" viewBox="0 0 64.000000 64.000000"
 preserveAspectRatio="xMidYMid meet">

<g transform="translate(0.000000,64.000000) scale(0.100000,-0.100000)"
fill="#000000" stroke="none">
<path d="M0 538 l1 -103 18 40 c16 35 17 43 5 62 -8 12 -14 25 -14 28 0 3 27
5 61 5 46 0 68 5 91 21 16 12 49 27 71 35 39 12 33 13 -95 13 l-138 1 0 -102z"/>
<path d="M407 626 c23 -8 54 -23 69 -35 21 -16 41 -21 90 -21 35 0 64 -3 64
-8 0 -4 -7 -17 -15 -28 -13 -19 -12 -25 5 -60 l20 -38 0 102 0 102 -137 -1
c-129 0 -135 -1 -96 -13z"/>
<path d="M235 586 l-30 -14 29 -11 c15 -6 41 -25 57 -42 l29 -31 25 30 c13 16
39 35 57 43 l32 13 -30 13 c-38 16 -131 16 -169 -1z"/>
<path d="M113 521 c-125 -57 -81 -244 58 -244 142 0 174 193 42 249 -41 18
-49 17 -100 -5z m121 -62 c33 -39 33 -69 0 -108 -64 -77 -182 -3 -144 89 16
38 35 49 82 50 28 0 42 -7 62 -31z"/>
<path d="M142 444 c-30 -21 -29 -59 3 -80 23 -15 27 -15 50 0 32 21 33 59 3
80 -12 9 -25 16 -28 16 -3 0 -16 -7 -28 -16z m46 -36 c-7 -19 -38 -22 -38 -4
0 10 9 16 21 16 12 0 19 -5 17 -12z"/>
<path d="M415 521 c-111 -51 -97 -205 23 -240 44 -13 92 2 128 40 25 26 29 38
29 84 0 60 -25 97 -82 121 -41 18 -50 17 -98 -5z m119 -62 c14 -17 26 -41 26
-54 0 -13 -12 -37 -26 -54 -64 -77 -182 -3 -144 89 16 38 35 49 82 50 28 0 42
-7 62 -31z"/>
<path d="M442 444 c-30 -21 -29 -59 3 -80 23 -15 27 -15 50 0 32 21 33 59 3
80 -12 9 -25 16 -28 16 -3 0 -16 -7 -28 -16z m48 -39 c0 -8 -9 -15 -20 -15
-11 0 -20 7 -20 15 0 8 9 15 20 15 11 0 20 -7 20 -15z"/>
<path d="M630 362 c0 -29 -47 -88 -83 -106 -48 -22 -114 -20 -162 5 -21 12
-41 17 -42 12 -2 -6 -10 -19 -18 -29 -11 -15 -14 -16 -15 -4 -1 38 -16 43 -60
20 -87 -45 -192 -11 -231 74 l-19 41 0 -187 0 -188 320 0 320 0 0 190 c0 105
-2 190 -5 190 -3 0 -5 -8 -5 -18z"/>
</g>
</svg>
